<svg width="24" height="24" viewBox="0 0 24 24" fill="none" xmlns="http://www.w3.org/2000/svg">
<path d="M12.0003 1C15.6813 1 19.0003 3.565 19.0003 7V11.539C19.0003 12.181 19.1893 12.808 19.5453 13.342L21.7453 16.64C21.898 16.8685 21.9858 17.1343 21.9992 17.4088C22.0127 17.6834 21.9513 17.9564 21.8216 18.1988C21.6919 18.4412 21.4987 18.6437 21.2628 18.7848C21.027 18.926 20.7571 19.0003 20.4823 19H15.5003C15.5003 19.4596 15.4097 19.9148 15.2338 20.3394C15.0579 20.764 14.8001 21.1499 14.4751 21.4749C14.1501 21.7999 13.7643 22.0577 13.3397 22.2336C12.915 22.4095 12.4599 22.5 12.0003 22.5C11.5406 22.5 11.0855 22.4095 10.6609 22.2336C10.2362 22.0577 9.85039 21.7999 9.52539 21.4749C9.20038 21.1499 8.94257 20.764 8.76668 20.3394C8.59079 19.9148 8.50026 19.4596 8.50026 19H3.51926C3.2445 19.0002 2.97483 18.9259 2.73901 18.7849C2.50319 18.6439 2.31006 18.4415 2.18021 18.1994C2.05036 17.9572 1.98867 17.6844 2.00171 17.41C2.01475 17.1355 2.10204 16.8697 2.25426 16.641L4.45426 13.342C4.81027 12.8081 5.00025 12.1807 5.00026 11.539V7C5.00026 3.565 8.31826 1 12.0003 1ZM6.50026 7V11.539C6.50052 12.4768 6.2232 13.3936 5.70326 14.174L3.50326 17.472L3.50026 17.482L3.50126 17.489L3.50526 17.495L3.51126 17.499L3.51826 17.5H20.4823L20.4893 17.499L20.4953 17.495L20.4993 17.489L20.5003 17.483L20.4973 17.473L18.2983 14.174C17.778 13.3937 17.5003 12.4769 17.5003 11.539V7C17.5003 4.636 15.1173 2.5 12.0003 2.5C8.88326 2.5 6.50026 4.636 6.50026 7ZM14.0003 19H10.0003C10.0003 19.5304 10.211 20.0391 10.586 20.4142C10.9611 20.7893 11.4698 21 12.0003 21C12.5307 21 13.0394 20.7893 13.4145 20.4142C13.7895 20.0391 14.0003 19.5304 14.0003 19Z" fill="#8B8B8B"/>
</svg>
