<svg width="54" height="54" viewBox="0 0 54 54" fill="none" xmlns="http://www.w3.org/2000/svg">
<path d="M7.52975 48.5498H46.4686C51.1695 48.5498 53.5657 46.1989 53.5657 41.5433V17.8807C53.5657 13.2252 51.1695 10.8974 46.4686 10.8974H41.1804C39.4177 10.8974 38.8758 10.5358 37.8585 9.40563L36.0273 7.37099C34.9203 6.12899 33.768 5.45013 31.417 5.45013H22.4222C20.0944 5.45013 18.9411 6.12899 17.8119 7.37099L15.9807 9.40563C14.9866 10.5126 14.4215 10.8974 12.6588 10.8974H7.52878C2.82789 10.8974 0.431641 13.2252 0.431641 17.8807V41.5433C0.431641 46.1989 2.82886 48.5498 7.52975 48.5498ZM7.59628 44.9106C5.35914 44.9106 4.07086 43.713 4.07086 41.3621V18.0842C4.07086 15.7333 5.35914 14.5356 7.59628 14.5356H13.5623C15.597 14.5356 16.6818 14.1518 17.8119 12.8867L19.5968 10.8974C20.8851 9.45096 21.5408 9.08935 23.5523 9.08935H30.2869C32.2984 9.08935 32.9541 9.45096 34.2424 10.8974L36.0273 12.8857C37.1574 14.1518 38.2422 14.5356 40.2769 14.5356H46.4011C48.6382 14.5356 49.9275 15.7333 49.9275 18.0842V41.3621C49.9275 43.713 48.6392 44.9106 46.4011 44.9106H7.59628ZM26.9881 41.3177C28.6117 41.3223 30.2202 41.0055 31.7208 40.3856C33.2214 39.7657 34.5845 38.8549 35.7315 37.7058C36.8785 36.5566 37.7867 35.1918 38.4038 33.69C39.0209 32.1882 39.3347 30.5792 39.3271 28.9556C39.3271 22.0841 33.8576 16.5934 26.9871 16.5934C20.1619 16.5934 14.6703 22.0841 14.6703 28.9556C14.6703 35.8251 20.1619 41.3177 26.9871 41.3177M43.2363 23.4398C44.7734 23.4398 46.0385 22.1978 46.0385 20.6608C46.0385 19.9176 45.7433 19.2048 45.2177 18.6793C44.6922 18.1538 43.9795 17.8586 43.2363 17.8586C42.4931 17.8586 41.7803 18.1538 41.2548 18.6793C40.7293 19.2048 40.4341 19.9176 40.4341 20.6608C40.4341 22.1978 41.6992 23.4398 43.2363 23.4398ZM26.9881 37.8829C22.0837 37.8829 18.0839 33.9052 18.0839 28.9556C18.0839 24.0059 22.0615 20.0292 26.9881 20.0292C28.1607 20.0278 29.3222 20.2577 30.4058 20.7058C31.4895 21.1539 32.4742 21.8113 33.3034 22.6405C34.1327 23.4696 34.7902 24.4542 35.2384 25.5379C35.6866 26.6215 35.9167 27.7829 35.9154 28.9556C35.9168 30.1283 35.6869 31.2898 35.2387 32.3736C34.7906 33.4573 34.133 34.442 33.3038 35.2713C32.4745 36.1005 31.4898 36.7581 30.4061 37.2062C29.3223 37.6544 28.1608 37.8843 26.9881 37.8829Z" fill="#757575"/>
</svg>
