<svg width="25" height="25" viewBox="0 0 25 25" fill="none" xmlns="http://www.w3.org/2000/svg">
<path d="M4.06217 12.5C4.06217 10.7187 5.51009 9.27082 7.29134 9.27082H11.458V7.29166H7.29134C4.41634 7.29166 2.08301 9.62499 2.08301 12.5C2.08301 15.375 4.41634 17.7083 7.29134 17.7083H11.458V15.7292H7.29134C5.51009 15.7292 4.06217 14.2812 4.06217 12.5ZM8.33301 13.5417H16.6663V11.4583H8.33301V13.5417ZM17.708 7.29166H13.5413V9.27082H17.708C19.4893 9.27082 20.9372 10.7187 20.9372 12.5C20.9372 14.2812 19.4893 15.7292 17.708 15.7292H13.5413V17.7083H17.708C20.583 17.7083 22.9163 15.375 22.9163 12.5C22.9163 9.62499 20.583 7.29166 17.708 7.29166Z" fill="black"/>
</svg>
