<svg width="80" height="80" viewBox="0 0 80 80" fill="none" xmlns="http://www.w3.org/2000/svg">
<g clip-path="url(#clip0_4467_3754)">
<g clip-path="url(#clip1_4467_3754)">
<path d="M78.8347 41.6865C78.7997 41.2665 78.7298 40.8114 78.6073 40.3389C77.7327 37.0837 73.3053 35.2807 71.6431 32.4279C69.9634 29.5226 70.6115 24.7801 68.2667 22.4347C65.9044 20.0719 61.1792 20.7363 58.2743 19.0559C55.422 17.393 53.6199 12.9652 50.365 12.0898C47.1975 11.2319 43.4345 14.154 40.0044 14.1536C36.5744 14.1532 32.8121 11.2302 29.6619 12.0698C26.4067 12.9445 24.6037 17.3719 21.7509 19.0341C18.8456 20.7137 14.1031 20.0657 11.7402 22.4279C9.37737 24.7902 10.0418 29.5154 8.36143 32.4203C6.69854 35.2727 2.27071 37.0747 1.3953 40.3297C1.27274 40.8022 1.22018 41.2397 1.16763 41.6772L1.16762 41.7472C1.15008 42.0447 1.15005 42.3247 1.16752 42.6222L1.16688 47.9773C1.16441 49.7223 1.50623 51.4506 2.17276 53.0633C2.83929 54.6759 3.81744 56.1412 5.05117 57.3752C6.2849 58.6093 7.74996 59.5878 9.36245 60.2547C10.9749 60.9216 12.7032 61.2638 14.4481 61.2618L65.5845 61.2679C67.3294 61.2704 69.0577 60.9286 70.6704 60.262C72.283 59.5955 73.7483 58.6173 74.9824 57.3836C76.2164 56.1499 77.1949 54.6848 77.8618 53.0723C78.5287 51.4598 78.871 49.7316 78.8689 47.9867L78.8347 41.6865Z" fill="#FFCE7C"/>
<path d="M40.8598 29.2566C28.7145 29.2551 18.843 39.1242 18.8416 51.2695L18.8404 61.2448L62.8715 61.2501L62.8727 51.2748C62.8742 39.0945 53.0226 29.2406 40.8598 29.2566Z" fill="#FFDEA7"/>
<path d="M53.3034 28.4706C54.5109 29.1182 56.0335 28.6809 56.6812 27.4734L60.7247 20.0012L59.7622 19.7386C58.7997 19.406 57.9072 18.8984 57.0848 18.2858L56.3673 17.6032L52.3238 25.0754C51.6587 26.3003 52.096 27.8229 53.3034 28.4706ZM40.0035 24.7239C38.6385 24.7237 37.5186 23.6036 37.5188 22.2385L37.5023 13.7508L38.4823 13.9959C39.4798 14.1535 40.5298 14.1537 41.5274 13.9963L42.4899 13.7339L42.4889 22.2391C42.4887 23.6041 41.3686 24.724 40.0035 24.7239ZM26.5627 28.4674C25.3551 29.1147 23.8327 28.677 23.1853 27.4694L19.1611 20.0138L20.1061 19.7689C21.0687 19.4365 21.9613 18.9291 22.7839 18.3166L23.5015 17.6342L27.5432 25.1074C28.2081 26.2975 27.7704 27.82 26.5627 28.4674ZM12.911 39.981C14.0309 40.7862 15.571 40.5414 16.3937 39.4389C16.7864 38.9075 16.9551 38.2433 16.8636 37.5889C16.772 36.9345 16.4275 36.3421 15.9041 35.9388L9.0445 30.8978L8.67688 31.8253C8.20426 32.7528 7.59164 33.5752 6.87403 34.2927L6.08644 34.9401L12.911 39.981ZM66.9174 39.9875C65.7973 40.7924 64.2573 40.5472 63.4349 39.4446C62.63 38.3244 62.8752 36.7844 63.9428 35.962L70.8036 30.9227L71.171 31.8503C71.6434 32.7779 72.2558 33.6005 72.9733 34.3181L73.7432 34.9482L66.9174 39.9875Z" fill="#F3AD61"/>
</g>
</g>
<defs>
<clipPath id="clip0_4467_3754">
<rect width="80" height="80" fill="white"/>
</clipPath>
<clipPath id="clip1_4467_3754">
<rect width="79.198" height="79.198" fill="white" transform="translate(40.0078 -16) rotate(45.0069)"/>
</clipPath>
</defs>
</svg>
