<svg width="8" height="8" viewBox="0 0 8 8" fill="none" xmlns="http://www.w3.org/2000/svg">
<path d="M3.99971 0.833344C4.13231 0.833344 4.25949 0.886022 4.35326 0.97979C4.44703 1.07356 4.49971 1.20074 4.49971 1.33334V3.13401L6.05904 2.23334C6.17382 2.16808 6.30975 2.15088 6.43717 2.18547C6.56459 2.22006 6.67316 2.30365 6.73918 2.418C6.80519 2.53234 6.82331 2.66815 6.78956 2.7958C6.75581 2.92345 6.67294 3.03257 6.55904 3.09934L4.99971 4.00001L6.55904 4.90034C6.67294 4.96712 6.75581 5.07624 6.78956 5.20388C6.82331 5.33153 6.80519 5.46735 6.73918 5.58169C6.67316 5.69603 6.56459 5.77962 6.43717 5.81422C6.30975 5.84881 6.17382 5.8316 6.05904 5.76634L4.49971 4.86634V6.66668C4.49971 6.79928 4.44703 6.92646 4.35326 7.02023C4.25949 7.114 4.13231 7.16668 3.99971 7.16668C3.8671 7.16668 3.73992 7.114 3.64615 7.02023C3.55238 6.92646 3.49971 6.79928 3.49971 6.66668V4.86601L1.94037 5.76668C1.88349 5.80002 1.82057 5.82179 1.75523 5.83073C1.6899 5.83966 1.62345 5.83558 1.5597 5.81873C1.49595 5.80187 1.43616 5.77257 1.38378 5.73252C1.3314 5.69247 1.28746 5.64245 1.25449 5.58534C1.22152 5.52823 1.20017 5.46517 1.19167 5.39978C1.18317 5.33439 1.18769 5.26797 1.20497 5.20433C1.22224 5.14069 1.25194 5.0811 1.29234 5.02899C1.33274 4.97688 1.38305 4.93327 1.44037 4.90068L2.99971 4.00001L1.44037 3.09968C1.32647 3.0329 1.2436 2.92378 1.20985 2.79614C1.17611 2.66849 1.19422 2.53267 1.26024 2.41833C1.32625 2.30399 1.43482 2.2204 1.56224 2.1858C1.68966 2.15121 1.82559 2.16842 1.94037 2.23368L3.49971 3.13368V1.33334C3.49971 1.20074 3.55238 1.07356 3.64615 0.97979C3.73992 0.886022 3.8671 0.833344 3.99971 0.833344Z" fill="#F9291C"/>
</svg>
