<svg width="19" height="19" viewBox="0 0 19 19" fill="none" xmlns="http://www.w3.org/2000/svg">
<path fill-rule="evenodd" clip-rule="evenodd" d="M11.9474 13.539C10.4245 14.6609 8.53391 15.1659 6.65441 14.9529C4.7749 14.7399 3.0453 13.8246 1.8121 12.3903C0.578904 10.956 -0.0668056 9.10874 0.00433427 7.21854C0.0754742 5.32835 0.858209 3.53483 2.19573 2.19731C3.53325 0.859796 5.32676 0.0770611 7.21696 0.00592119C9.10715 -0.0652187 10.9544 0.580491 12.3887 1.81369C13.823 3.04689 14.7383 4.77649 14.9513 6.656C15.1643 8.5355 14.6593 10.4261 13.5374 11.949L17.6699 16.08C17.7804 16.183 17.8691 16.3072 17.9306 16.4452C17.9921 16.5832 18.0251 16.7322 18.0278 16.8832C18.0305 17.0343 18.0027 17.1843 17.9461 17.3244C17.8895 17.4645 17.8053 17.5917 17.6985 17.6985C17.5916 17.8054 17.4644 17.8896 17.3243 17.9462C17.1842 18.0028 17.0342 18.0305 16.8831 18.0279C16.7321 18.0252 16.5831 17.9921 16.4451 17.9307C16.3071 17.8692 16.1829 17.7805 16.0799 17.67L11.9474 13.539ZM12.7499 7.49999C12.7499 8.89238 12.1968 10.2277 11.2122 11.2123C10.2276 12.1969 8.89229 12.75 7.4999 12.75C6.10752 12.75 4.77216 12.1969 3.78759 11.2123C2.80303 10.2277 2.2499 8.89238 2.2499 7.49999C2.2499 6.1076 2.80303 4.77225 3.78759 3.78768C4.77216 2.80311 6.10752 2.24999 7.4999 2.24999C8.89229 2.24999 10.2276 2.80311 11.2122 3.78768C12.1968 4.77225 12.7499 6.1076 12.7499 7.49999Z" fill="#B9B9B9"/>
</svg>
