<svg width="24" height="24" viewBox="0 0 24 24" fill="none" xmlns="http://www.w3.org/2000/svg">
<path d="M16 12C16 13.0609 15.5786 14.0783 14.8284 14.8284C14.0783 15.5786 13.0609 16 12 16C10.9391 16 9.92172 15.5786 9.17157 14.8284C8.42143 14.0783 8 13.0609 8 12C8 10.9391 8.42143 9.92172 9.17157 9.17157C9.92172 8.42143 10.9391 8 12 8C13.0609 8 14.0783 8.42143 14.8284 9.17157C15.5786 9.92172 16 10.9391 16 12ZM14.5 12C14.5 11.337 14.2366 10.7011 13.7678 10.2322C13.2989 9.76339 12.663 9.5 12 9.5C11.337 9.5 10.7011 9.76339 10.2322 10.2322C9.76339 10.7011 9.5 11.337 9.5 12C9.5 12.663 9.76339 13.2989 10.2322 13.7678C10.7011 14.2366 11.337 14.5 12 14.5C12.663 14.5 13.2989 14.2366 13.7678 13.7678C14.2366 13.2989 14.5 12.663 14.5 12Z" fill="#2F2F2F"/>
<path d="M11.9999 1C12.2666 1 12.5323 1.00933 12.7969 1.028C13.5599 1.083 14.1419 1.645 14.3089 2.332L14.6609 3.782C14.6799 3.86 14.7509 3.953 14.8859 4.003C15.1326 4.09233 15.3753 4.193 15.6139 4.305C15.7439 4.366 15.8599 4.349 15.9289 4.307L17.2039 3.531C17.8069 3.163 18.6149 3.178 19.1939 3.678C19.5966 4.02733 19.9726 4.40367 20.3219 4.807C20.8229 5.385 20.8369 6.193 20.4689 6.797L19.6929 8.071C19.6509 8.14 19.6349 8.256 19.6949 8.386C19.8069 8.624 19.9079 8.86667 19.9979 9.114C20.0459 9.249 20.1399 9.319 20.2179 9.339L21.6679 9.691C22.3549 9.858 22.9169 10.44 22.9709 11.203C23.0089 11.7343 23.0089 12.2657 22.9709 12.797C22.9169 13.56 22.3549 14.142 21.6679 14.309L20.2179 14.661C20.1399 14.68 20.0469 14.751 19.9969 14.886C19.9076 15.134 19.8069 15.3767 19.6949 15.614C19.6339 15.744 19.6509 15.86 19.6929 15.929L20.4689 17.204C20.8369 17.807 20.8219 18.615 20.3219 19.194C19.9726 19.5973 19.5963 19.9733 19.1929 20.322C18.6149 20.823 17.8069 20.837 17.2029 20.469L15.9289 19.693C15.8599 19.651 15.7439 19.635 15.6149 19.695C15.3765 19.8066 15.1332 19.9077 14.8859 19.998C14.7509 20.046 14.6809 20.14 14.6609 20.218L14.3089 21.668C14.1419 22.355 13.5599 22.917 12.7969 22.971C12.2656 23.009 11.7343 23.009 11.2029 22.971C10.4399 22.917 9.85793 22.355 9.69093 21.668L9.33893 20.218C9.31993 20.14 9.24893 20.047 9.11393 19.997C8.86645 19.9084 8.62349 19.8076 8.38593 19.695C8.25593 19.634 8.13993 19.651 8.07093 19.693L6.79593 20.469C6.19293 20.837 5.38493 20.822 4.80593 20.322C4.4026 19.9727 4.0266 19.5963 3.67793 19.193C3.17693 18.615 3.16293 17.807 3.53093 17.203L4.30693 15.929C4.34893 15.86 4.36493 15.744 4.30493 15.615C4.19332 15.3765 4.09222 15.1333 4.00193 14.886C3.95393 14.751 3.85993 14.681 3.78193 14.661L2.33193 14.309C1.64493 14.142 1.08293 13.56 1.02793 12.797C0.989386 12.2664 0.989386 11.7336 1.02793 11.203C1.08293 10.44 1.64493 9.858 2.33193 9.691L3.78193 9.339C3.85993 9.32 3.95293 9.249 4.00293 9.114C4.09227 8.866 4.19293 8.62333 4.30493 8.386C4.36593 8.256 4.34893 8.14 4.30693 8.071L3.53093 6.796C3.16293 6.193 3.17793 5.385 3.67793 4.806C4.02727 4.40267 4.4036 4.02667 4.80693 3.678C5.38493 3.177 6.19293 3.163 6.79693 3.531L8.07093 4.307C8.13993 4.349 8.25593 4.365 8.38593 4.305C8.62393 4.193 8.8666 4.092 9.11393 4.002C9.24893 3.954 9.31893 3.86 9.33893 3.782L9.69093 2.332C9.85793 1.645 10.4399 1.083 11.2029 1.028C11.4663 1.00933 11.7319 1 11.9999 1ZM11.3099 2.525C11.2549 2.529 11.1749 2.575 11.1489 2.686L10.7959 4.136C10.7213 4.42913 10.5752 4.69921 10.3707 4.92206C10.1662 5.14491 9.90961 5.31358 9.62393 5.413C9.42019 5.48667 9.21997 5.56976 9.02393 5.662C8.75136 5.79414 8.45025 5.85655 8.1476 5.84364C7.84496 5.83072 7.55026 5.74288 7.28993 5.588L6.01593 4.812C5.91793 4.752 5.82993 4.776 5.78793 4.812C5.44051 5.11447 5.1144 5.44058 4.81193 5.788C4.77593 5.83 4.75193 5.919 4.81193 6.016L5.58793 7.29C5.90193 7.819 5.92993 8.47 5.66193 9.024C5.56969 9.22004 5.4866 9.42025 5.41293 9.624C5.31356 9.90998 5.1448 10.1668 4.92175 10.3716C4.69871 10.5763 4.42836 10.7225 4.13493 10.797L2.68493 11.148C2.57493 11.175 2.52893 11.255 2.52493 11.31C2.49316 11.7695 2.49316 12.2305 2.52493 12.69C2.52893 12.745 2.57493 12.825 2.68593 12.851L4.13593 13.204C4.42907 13.2786 4.69914 13.4247 4.92199 13.6292C5.14484 13.8337 5.31352 14.0903 5.41293 14.376C5.48693 14.58 5.56993 14.78 5.66193 14.976C5.92993 15.529 5.90193 16.18 5.58793 16.709L4.81193 17.984C4.75193 18.082 4.77593 18.17 4.81193 18.212C5.11393 18.5607 5.43927 18.886 5.78793 19.188C5.82993 19.224 5.91893 19.248 6.01593 19.188L7.28993 18.412C7.55018 18.257 7.84484 18.1689 8.14748 18.1559C8.45012 18.1428 8.75128 18.205 9.02393 18.337C9.21993 18.4303 9.41993 18.5137 9.62393 18.587C9.90991 18.6864 10.1668 18.8551 10.3715 19.0782C10.5762 19.3012 10.7224 19.5716 10.7969 19.865L11.1479 21.315C11.1749 21.425 11.2549 21.471 11.3099 21.475C11.7694 21.5068 12.2305 21.5068 12.6899 21.475C12.7449 21.471 12.8249 21.425 12.8509 21.314L13.2039 19.864C13.2784 19.5707 13.4244 19.3004 13.629 19.0774C13.8335 18.8543 14.0901 18.6855 14.3759 18.586C14.5797 18.5127 14.7799 18.4299 14.9759 18.338C15.2484 18.206 15.5493 18.1437 15.8518 18.1566C16.1542 18.1695 16.4487 18.2573 16.7089 18.412L17.9839 19.188C18.0819 19.248 18.1699 19.224 18.2119 19.188C18.5606 18.886 18.8859 18.5607 19.1879 18.212C19.2239 18.17 19.2479 18.081 19.1879 17.984L18.4119 16.709C18.2571 16.4489 18.1691 16.1544 18.1561 15.852C18.143 15.5495 18.2051 15.2485 18.3369 14.976C18.4303 14.78 18.5136 14.58 18.5869 14.376C18.6863 14.09 18.8551 13.8332 19.0781 13.6284C19.3012 13.4237 19.5715 13.2775 19.8649 13.203L21.3149 12.852C21.4249 12.825 21.4709 12.745 21.4749 12.69C21.5067 12.2305 21.5067 11.7695 21.4749 11.31C21.4709 11.255 21.4249 11.175 21.3139 11.149L19.8639 10.796C19.2379 10.644 18.7839 10.171 18.5859 9.624C18.5126 9.42027 18.4298 9.22006 18.3379 9.024C18.2058 8.75143 18.1434 8.45031 18.1563 8.14767C18.1692 7.84503 18.2571 7.55033 18.4119 7.29L19.1879 6.016C19.2479 5.918 19.2239 5.83 19.1879 5.788C18.8855 5.44058 18.5594 5.11447 18.2119 4.812C18.1699 4.776 18.0809 4.752 17.9839 4.812L16.7089 5.588C16.4487 5.74271 16.1542 5.83046 15.8518 5.84337C15.5493 5.85629 15.2484 5.79397 14.9759 5.662C14.7799 5.56976 14.5797 5.48667 14.3759 5.413C14.0904 5.31285 13.834 5.14383 13.6294 4.92091C13.4248 4.69799 13.2783 4.42805 13.2029 4.135L12.8519 2.685C12.8249 2.575 12.7449 2.529 12.6899 2.525C12.2305 2.49322 11.7694 2.49322 11.3099 2.525Z" fill="#2F2F2F"/>
</svg>
