<svg width="14" height="14" viewBox="0 0 14 14" fill="none" xmlns="http://www.w3.org/2000/svg">
<g clip-path="url(#clip0_4430_5473)">
<path fill-rule="evenodd" clip-rule="evenodd" d="M9.33333 8.75C10.0952 8.75 10.7438 9.23708 10.9842 9.91667H11.6667C11.8214 9.91667 11.9697 9.97812 12.0791 10.0875C12.1885 10.1969 12.25 10.3453 12.25 10.5C12.25 10.6547 12.1885 10.8031 12.0791 10.9125C11.9697 11.0219 11.8214 11.0833 11.6667 11.0833H10.9842C10.8636 11.4249 10.6402 11.7207 10.3445 11.9299C10.0488 12.1391 9.69553 12.2514 9.33333 12.2514C8.97113 12.2514 8.61785 12.1391 8.32218 11.9299C8.02651 11.7207 7.80302 11.4249 7.6825 11.0833H2.33333C2.17862 11.0833 2.03025 11.0219 1.92085 10.9125C1.81146 10.8031 1.75 10.6547 1.75 10.5C1.75 10.3453 1.81146 10.1969 1.92085 10.0875C2.03025 9.97812 2.17862 9.91667 2.33333 9.91667H7.6825C7.80318 9.57533 8.02676 9.27982 8.32243 9.07087C8.61809 8.86192 8.97129 8.74981 9.33333 8.75ZM9.33333 9.91667C9.17862 9.91667 9.03025 9.97812 8.92085 10.0875C8.81146 10.1969 8.75 10.3453 8.75 10.5C8.75 10.6547 8.81146 10.8031 8.92085 10.9125C9.03025 11.0219 9.17862 11.0833 9.33333 11.0833C9.48804 11.0833 9.63642 11.0219 9.74581 10.9125C9.85521 10.8031 9.91667 10.6547 9.91667 10.5C9.91667 10.3453 9.85521 10.1969 9.74581 10.0875C9.63642 9.97812 9.48804 9.91667 9.33333 9.91667ZM4.66667 5.25C5.01024 5.24995 5.34623 5.35105 5.63274 5.54067C5.91925 5.73029 6.14361 6.00006 6.27783 6.31633L6.31692 6.41667H11.6667C11.8153 6.41683 11.9584 6.47376 12.0665 6.57583C12.1746 6.67789 12.2396 6.81739 12.2483 6.96581C12.2571 7.11424 12.2088 7.26039 12.1133 7.3744C12.0179 7.48842 11.8826 7.56169 11.7349 7.57925L11.6667 7.58333H6.3175C6.1999 7.916 5.98452 8.20537 5.69959 8.41349C5.41467 8.62161 5.0735 8.73878 4.72083 8.74963C4.36816 8.76048 4.02043 8.6645 3.72326 8.47428C3.42608 8.28406 3.19332 8.00848 3.0555 7.68367L3.01583 7.58333H2.33333C2.18465 7.58317 2.04165 7.52624 1.93354 7.42417C1.82542 7.32211 1.76036 7.18261 1.75165 7.03419C1.74294 6.88576 1.79123 6.73961 1.88665 6.6256C1.98208 6.51158 2.11744 6.43831 2.26508 6.42075L2.33333 6.41667H3.01583C3.13652 6.07533 3.3601 5.77982 3.65576 5.57087C3.95143 5.36192 4.30462 5.24981 4.66667 5.25ZM4.66667 6.41667C4.51196 6.41667 4.36358 6.47813 4.25419 6.58752C4.14479 6.69692 4.08333 6.84529 4.08333 7C4.08333 7.15471 4.14479 7.30308 4.25419 7.41248C4.36358 7.52188 4.51196 7.58333 4.66667 7.58333C4.82138 7.58333 4.96975 7.52188 5.07915 7.41248C5.18854 7.30308 5.25 7.15471 5.25 7C5.25 6.84529 5.18854 6.69692 5.07915 6.58752C4.96975 6.47813 4.82138 6.41667 4.66667 6.41667ZM9.33333 1.75C10.0952 1.75 10.7438 2.23708 10.9842 2.91667H11.6667C11.8214 2.91667 11.9697 2.97813 12.0791 3.08752C12.1885 3.19692 12.25 3.34529 12.25 3.5C12.25 3.65471 12.1885 3.80308 12.0791 3.91248C11.9697 4.02188 11.8214 4.08333 11.6667 4.08333H10.9842C10.8636 4.42489 10.6402 4.72066 10.3445 4.92987C10.0488 5.13908 9.69553 5.25143 9.33333 5.25143C8.97113 5.25143 8.61785 5.13908 8.32218 4.92987C8.02651 4.72066 7.80302 4.42489 7.6825 4.08333H2.33333C2.17862 4.08333 2.03025 4.02188 1.92085 3.91248C1.81146 3.80308 1.75 3.65471 1.75 3.5C1.75 3.34529 1.81146 3.19692 1.92085 3.08752C2.03025 2.97813 2.17862 2.91667 2.33333 2.91667H7.6825C7.80318 2.57533 8.02676 2.27982 8.32243 2.07087C8.61809 1.86192 8.97129 1.74981 9.33333 1.75ZM9.33333 2.91667C9.17862 2.91667 9.03025 2.97813 8.92085 3.08752C8.81146 3.19692 8.75 3.34529 8.75 3.5C8.75 3.65471 8.81146 3.80308 8.92085 3.91248C9.03025 4.02188 9.17862 4.08333 9.33333 4.08333C9.48804 4.08333 9.63642 4.02188 9.74581 3.91248C9.85521 3.80308 9.91667 3.65471 9.91667 3.5C9.91667 3.34529 9.85521 3.19692 9.74581 3.08752C9.63642 2.97813 9.48804 2.91667 9.33333 2.91667Z" fill="#8B8B8B"/>
</g>
<defs>
<clipPath id="clip0_4430_5473">
<rect width="14" height="14" fill="white"/>
</clipPath>
</defs>
</svg>
