<svg width="24" height="24" viewBox="0 0 24 24" fill="none" xmlns="http://www.w3.org/2000/svg">
<path d="M13.5079 22.1584H6.80197C5.03727 22.1584 3.66969 22.1506 2.56669 21.0996C0.306694 18.9466 4.61203 16.2471 6.02703 15.4051C7.96204 14.2595 10.2105 13.7571 12.449 13.9701M20.849 20.3231L22.449 21.9231M15.949 6.4231C15.949 7.01404 15.8326 7.59921 15.6065 8.14517C15.3803 8.69114 15.0489 9.18721 14.631 9.60508C14.2132 10.0229 13.7171 10.3544 13.1711 10.5806C12.6251 10.8067 12.04 10.9231 11.449 10.9231C10.8581 10.9231 10.2729 10.8067 9.72696 10.5806C9.18099 10.3544 8.68491 10.0229 8.26705 9.60508C7.84919 9.18721 7.51772 8.69114 7.29157 8.14517C7.06543 7.59921 6.94903 7.01404 6.94903 6.4231C6.94903 5.22962 7.42314 4.08503 8.26705 3.24112C9.11096 2.3972 10.2556 1.9231 11.449 1.9231C12.6425 1.9231 13.7871 2.3972 14.631 3.24112C15.4749 4.08503 15.949 5.22962 15.949 6.4231ZM21.649 17.5231C21.649 16.5683 21.2697 15.6526 20.5946 14.9775C19.9195 14.3024 19.0038 13.9231 18.049 13.9231C17.0943 13.9231 16.1786 14.3024 15.5034 14.9775C14.8283 15.6526 14.449 16.5683 14.449 17.5231C14.449 18.4779 14.8283 19.3935 15.5034 20.0687C16.1786 20.7438 17.0943 21.1231 18.049 21.1231C19.0038 21.1231 19.9195 20.7438 20.5946 20.0687C21.2697 19.3935 21.649 18.4779 21.649 17.5231Z" stroke="black" stroke-width="1.5" stroke-linecap="round" stroke-linejoin="round"/>
</svg>
