<svg width="24" height="24" viewBox="0 0 24 24" fill="none" xmlns="http://www.w3.org/2000/svg">
<path d="M20.5057 22.0417C20.5057 18.1395 16.155 14.9675 12.2528 14.9675C8.35067 14.9675 4 18.1395 4 22.0417M12.2528 11.4315C13.5035 11.4315 14.703 10.9347 15.5874 10.0503C16.4717 9.16591 16.9686 7.96644 16.9686 6.71575C16.9686 5.46506 16.4717 4.26559 15.5874 3.38121C14.703 2.49684 13.5035 2 12.2528 2C11.0021 2 9.80267 2.49684 8.9183 3.38121C8.03392 4.26559 7.53708 5.46506 7.53708 6.71575C7.53708 7.96644 8.03392 9.16591 8.9183 10.0503C9.80267 10.9347 11.0021 11.4315 12.2528 11.4315Z" stroke="black" stroke-width="1.5" stroke-linecap="round" stroke-linejoin="round"/>
</svg>
